<svg width="42" height="42" viewBox="0 0 42 42" fill="none" xmlns="http://www.w3.org/2000/svg">
<path d="M40.5772 10.3701C40.5751 10.3659 40.5772 10.3618 40.5751 10.3576C40.5709 10.3472 40.5602 10.341 40.556 10.3305C39.7352 8.86474 38.4565 7.65538 36.8404 6.94855L24.1156 1.3877C22.0605 0.491127 19.7086 0.491127 17.6535 1.3877L4.9287 6.94855C3.31052 7.65538 2.03364 8.86474 1.21289 10.3305C1.20865 10.341 1.19823 10.3472 1.19399 10.3576C1.19187 10.3618 1.19378 10.3659 1.19166 10.3701C0.570266 11.494 0.209961 12.7617 0.209961 14.092V27.9931C0.209961 31.079 2.06339 33.8834 4.93284 35.1386L17.6577 40.6995C18.6799 41.1457 19.7763 41.3667 20.8728 41.3708C20.8791 41.3708 20.8835 41.3729 20.8899 41.3729C20.8962 41.3729 20.9003 41.3708 20.9067 41.3708C22.0031 41.3688 23.0996 41.1457 24.1218 40.6995L36.8466 35.1386C39.7161 33.8854 41.5698 31.0811 41.5698 27.9931V14.092C41.5592 12.7617 41.1986 11.4919 40.5772 10.3701ZM18.943 4.24423C19.5581 3.97526 20.2218 3.83973 20.8813 3.83973C21.5409 3.83973 22.2046 3.97316 22.8196 4.24213L35.5444 9.80297C35.905 9.96144 36.221 10.1804 36.5243 10.4119L30.7281 12.9452L15.3334 5.82056L18.943 4.24423ZM11.4925 7.49902L26.8875 14.6237L22.8326 16.396C21.5898 16.9277 20.1665 16.9276 18.9407 16.4001L5.23833 10.4119C5.5416 10.1804 5.85768 9.95935 6.21821 9.80297L11.4925 7.49902ZM6.21821 32.2779C4.49612 31.5252 3.38469 29.8426 3.38469 27.991V14.0899C3.38469 13.7458 3.46093 13.4164 3.53304 13.0912L17.6577 19.2629C18.1857 19.4881 18.7329 19.6528 19.2907 19.7612V37.9472C19.1762 37.9076 19.0554 37.8846 18.943 37.8366L6.21821 32.2779ZM38.3779 27.991C38.3779 29.8426 37.2665 31.5252 35.5444 32.2779L22.8196 37.8387C22.7072 37.8888 22.5864 37.9097 22.4719 37.9493V19.7612C23.0318 19.6507 23.5833 19.486 24.1135 19.2587L29.108 17.0757V20.8122C29.108 21.6754 29.8206 22.376 30.6986 22.376C31.5766 22.376 32.2892 21.6754 32.2892 20.8122V15.6871L38.2273 13.0932C38.3015 13.4206 38.3759 13.7479 38.3759 14.092V27.991H38.3779Z" fill="#87B44B"/>
</svg>
