<svg width="42" height="42" viewBox="0 0 42 42" fill="none" xmlns="http://www.w3.org/2000/svg">
<path d="M37.8479 29.903H3.91502C2.45166 29.903 1.26401 31.0707 1.26401 32.5093V33.5519C1.26401 38.5977 4.08468 41.3709 9.21703 41.3709H32.5459C37.6782 41.3709 40.4989 38.5977 40.4989 33.5519V32.5093C40.4989 31.0707 39.3112 29.903 37.8479 29.903ZM37.3177 33.5519C37.3177 36.8463 35.8967 38.2433 32.5459 38.2433H9.21703C5.86616 38.2433 4.44522 36.8463 4.44522 33.5519V33.0306H37.3177V33.5519ZM3.91502 20.5202H37.8479C39.3112 20.5202 40.4989 19.3526 40.4989 17.9139V16.8714C40.4989 7.05075 32.8004 0.712158 20.8814 0.712158C8.96253 0.712158 1.26401 7.05075 1.26401 16.8714V17.9139C1.26401 19.3526 2.45166 20.5202 3.91502 20.5202ZM4.44522 16.8714C4.44522 8.8439 10.744 3.83975 20.8814 3.83975C31.0189 3.83975 37.3177 8.8439 37.3177 16.8714V17.3927H4.44522V16.8714ZM41.5593 25.2116C41.5593 26.0665 40.8382 26.7754 39.9687 26.7754H1.79422C0.924686 26.7754 0.203613 26.0665 0.203613 25.2116C0.203613 24.3568 0.924686 23.6478 1.79422 23.6478H39.9687C40.8382 23.6478 41.5593 24.3568 41.5593 25.2116ZM13.8616 10.0115C13.9464 10.2201 13.9888 10.4077 13.9888 10.6162C13.9888 11.0332 13.8192 11.4294 13.5223 11.7213C13.3738 11.8672 13.2042 11.9715 13.0133 12.0549C12.8012 12.1383 12.6103 12.18 12.3982 12.18C12.1862 12.18 11.9741 12.1383 11.7832 12.0549C11.5923 11.9715 11.4227 11.8672 11.2742 11.7213C11.1258 11.5753 11.0197 11.4085 10.9349 11.2209C10.85 11.0332 10.8076 10.8247 10.8076 10.6162C10.8076 10.4077 10.85 10.1992 10.9349 10.0115C11.0197 9.82389 11.1258 9.65708 11.2742 9.51112C11.7196 9.07326 12.4195 8.9273 13.0133 9.1775C13.2042 9.26091 13.3738 9.36517 13.5223 9.51112C13.6707 9.65708 13.7768 9.82389 13.8616 10.0115ZM22.3448 7.92649C22.4296 8.11414 22.472 8.32263 22.472 8.53114C22.472 8.73965 22.4296 8.94814 22.3448 9.13579C22.26 9.32345 22.1539 9.49027 22.0055 9.63622C21.7086 9.92813 21.3056 10.0949 20.8814 10.0949C20.6694 10.0949 20.4573 10.0532 20.2664 9.96984C20.0755 9.88644 19.9059 9.78217 19.7574 9.63622C19.609 9.49027 19.5029 9.32345 19.4181 9.13579C19.3333 8.94814 19.2908 8.73965 19.2908 8.53114C19.2908 8.32263 19.3333 8.11414 19.4181 7.92649C19.4817 7.73883 19.609 7.57201 19.7574 7.42606C19.9059 7.28011 20.0755 7.17584 20.2664 7.09244C20.8602 6.84223 21.5601 6.9882 22.0055 7.42606C22.1539 7.57201 22.26 7.73883 22.3448 7.92649ZM30.828 10.0115C30.9128 10.1992 30.9553 10.4077 30.9553 10.6162C30.9553 11.0332 30.7856 11.4294 30.4887 11.7213C30.3402 11.8672 30.1706 11.9715 29.9797 12.0549C29.7676 12.1383 29.5767 12.18 29.3647 12.18C29.1526 12.18 28.9405 12.1383 28.7496 12.0549C28.5587 11.9715 28.3891 11.8672 28.2406 11.7213C27.9437 11.4294 27.7741 11.0332 27.7741 10.6162C27.7741 10.4077 27.8165 10.1992 27.9013 10.0115C27.9649 9.82389 28.0922 9.65708 28.2406 9.51112C28.3891 9.36517 28.5587 9.26091 28.7496 9.1775C29.1526 9.0107 29.5768 9.0107 29.9797 9.1775C30.1706 9.26091 30.3402 9.36517 30.4887 9.51112C30.6371 9.65708 30.7432 9.82389 30.828 10.0115Z" fill="#87B44B"/>
</svg>
