<svg width="42" height="40" viewBox="0 0 42 40" fill="none" xmlns="http://www.w3.org/2000/svg">
<path d="M41.4468 21.1557C41.4468 21.1453 41.453 21.137 41.453 21.1266C41.453 21.0974 41.4383 21.0744 41.4362 21.0452C41.4128 20.9035 41.381 20.7617 41.3492 20.6199C41.3343 20.5782 41.3302 20.5344 41.3132 20.4948C41.2263 20.132 41.1371 19.7691 40.9971 19.4126L38.7958 14.0666C37.8223 11.6416 36.8149 9.13542 31.4196 9.13542H26.7115V5.48656C26.7115 2.89899 24.5694 0.795166 21.9396 0.795166H4.97322C2.34343 0.795166 0.201416 2.89899 0.201416 5.48656V28.4222C0.201416 30.8513 2.0952 32.83 4.50231 33.0677C4.48322 33.2574 4.44302 33.441 4.44302 33.6349C4.44302 36.7959 7.05797 39.3688 10.2752 39.3688C13.4925 39.3688 16.1074 36.7959 16.1074 33.6349C16.1074 33.4556 16.0692 33.2867 16.0544 33.1136H25.7062C25.6892 33.2867 25.6531 33.4556 25.6531 33.6349C25.6531 36.7959 28.2681 39.3688 31.4853 39.3688C34.7026 39.3688 37.3175 36.7959 37.3175 33.6349C37.3175 33.441 37.2795 33.2553 37.2583 33.0677C39.6654 32.83 41.5591 30.8513 41.5591 28.4222V22.3338C41.5591 21.9397 41.5062 21.5477 41.4468 21.1557ZM31.4216 12.265C34.6516 12.265 34.953 13.0095 35.8437 15.228L37.6272 19.5628H26.7135V12.265H31.4216ZM10.2773 36.2433C8.81607 36.2433 7.6263 35.0735 7.6263 33.6369C7.6263 32.2003 8.81607 31.0306 10.2773 31.0306C11.7385 31.0306 12.9283 32.2003 12.9283 33.6369C12.9283 35.0735 11.7385 36.2433 10.2773 36.2433ZM31.4853 36.2433C30.0241 36.2433 28.8343 35.0735 28.8343 33.6369C28.8343 32.2003 30.0241 31.0306 31.4853 31.0306C32.9466 31.0306 34.1363 32.2003 34.1363 33.6369C34.1363 35.0735 32.9466 36.2433 31.4853 36.2433ZM36.7873 29.9881H35.9475C34.8765 28.7245 33.2859 27.903 31.4853 27.903C29.6848 27.903 28.0942 28.7245 27.0232 29.9881H14.7374C13.6664 28.7245 12.0758 27.903 10.2752 27.903C8.47467 27.903 6.88406 28.7245 5.81305 29.9881H4.97322C4.09733 29.9881 3.38262 29.2875 3.38262 28.4243V22.6904H16.6376C17.5157 22.6904 18.2282 21.9898 18.2282 21.1266C18.2282 20.2633 17.5157 19.5628 16.6376 19.5628H3.38262V5.48859C3.38262 4.62538 4.09733 3.9248 4.97322 3.9248H21.9396C22.8155 3.9248 23.5303 4.62538 23.5303 5.48859V22.6904H38.3759V28.4243C38.378 29.2875 37.6632 29.9881 36.7873 29.9881Z" fill="#87B44B"/>
</svg>
