<svg width="46" height="42" viewBox="0 0 46 42" fill="none" xmlns="http://www.w3.org/2000/svg">
<path d="M30.6614 41.675H15.7409C11.1104 41.675 8.5588 39.1382 8.5588 34.535C8.5588 29.4866 11.4149 23.592 19.4684 23.592H26.9338C34.9873 23.592 37.8434 29.4866 37.8434 34.535C37.8434 39.1382 35.2919 41.675 30.6614 41.675ZM19.4684 26.742C12.2675 26.742 11.7088 32.7059 11.7088 34.535C11.7088 37.37 12.8786 38.525 15.7409 38.525H30.6614C33.5237 38.525 34.6934 37.3679 34.6934 34.535C34.6934 32.7059 34.1326 26.742 26.9338 26.742H19.4684ZM23.217 20.7001C18.8679 20.7001 15.3292 17.1617 15.3292 12.8126C15.3292 8.46347 18.8679 4.92501 23.217 4.92501C27.5661 4.92501 31.1066 8.46347 31.1066 12.8126C31.1066 17.1617 27.5661 20.7001 23.217 20.7001ZM23.217 8.07501C20.6046 8.07501 18.4792 10.2002 18.4792 12.8126C18.4792 15.425 20.6046 17.5501 23.217 17.5501C25.8294 17.5501 27.9566 15.425 27.9566 12.8126C27.9566 10.2002 25.8294 8.07501 23.217 8.07501ZM45.7751 22.5651C45.7751 18.4155 43.2027 14.2281 37.4592 14.2281H35.422C34.5526 14.2281 33.847 14.9337 33.847 15.8031C33.847 16.6725 34.5526 17.3781 35.422 17.3781H37.4592C42.1233 17.3781 42.6251 21.0048 42.6251 22.5651C42.6251 24.3795 41.9761 25.0219 40.147 25.0219H39.391C38.5216 25.0219 37.816 25.7275 37.816 26.5969C37.816 27.4663 38.5216 28.1719 39.391 28.1719H40.147C43.7233 28.1719 45.7751 26.1288 45.7751 22.5651ZM36.008 12.8736C38.8451 12.3024 40.9032 9.7698 40.9032 6.8571C40.9032 3.4761 38.1521 0.725012 34.7711 0.725012C33.173 0.725012 31.6861 1.31715 30.5857 2.39025C29.962 2.99715 29.9496 3.99472 30.5565 4.61842C31.1613 5.24212 32.1628 5.2548 32.7844 4.6479C33.2947 4.1502 34.0004 3.87706 34.7711 3.87706C36.4154 3.87706 37.7532 5.21486 37.7532 6.85916C37.7532 8.27876 36.7556 9.5115 35.3843 9.7887C34.5317 9.9609 33.9793 10.7923 34.1515 11.6449C34.3027 12.3925 34.96 12.9092 35.6929 12.9092C35.7979 12.905 35.903 12.8946 36.008 12.8736ZM8.56316 26.5969C8.56316 25.7275 7.85756 25.0219 6.98816 25.0219H6.2509C4.4218 25.0219 3.77305 24.3795 3.77305 22.5651C3.77305 21.0048 4.27487 17.3781 8.93897 17.3781H11.0179C11.8873 17.3781 12.5929 16.6725 12.5929 15.8031C12.5929 14.9337 11.8873 14.2281 11.0179 14.2281H8.93897C2.80066 14.2281 0.623047 18.72 0.623047 22.5651C0.623047 26.1288 2.6746 28.1719 6.2509 28.1719H6.98816C7.85756 28.1719 8.56316 27.4663 8.56316 26.5969ZM12.2928 11.6408C12.465 10.7882 11.9126 9.95654 11.06 9.78434C9.67399 9.50504 8.66801 8.2744 8.66801 6.8548C8.66801 5.2105 10.0163 3.87296 11.6711 3.87296C12.4271 3.87296 13.1389 4.15226 13.6786 4.66046C14.3107 5.25896 15.3062 5.2295 15.9047 4.5974C16.5032 3.9653 16.4737 2.96793 15.8416 2.37153C14.7181 1.30893 13.2377 0.722961 11.6732 0.722961C8.28167 0.722961 5.52031 3.4738 5.52031 6.8548C5.52031 9.7654 7.58864 12.2961 10.4383 12.8715C10.5433 12.8925 10.6484 12.9028 10.7513 12.9028C11.4842 12.9049 12.1395 12.3884 12.2928 11.6408Z" fill="#87B44B"/>
</svg>
